<?xml version='1.0' encoding='utf-8'?>
<svg xmlns="http://www.w3.org/2000/svg" version="1.1" viewBox="0 0 500 506.62"> <defs> <linearGradient id="f" x1="13.403" x2="13.6" y1="123.39" y2="121.62" gradientTransform="translate(-14.915 -16.241)" gradientUnits="userSpaceOnUse"> <stop offset="0"/> <stop stop-color="#808080" offset="1"/> </linearGradient> <linearGradient id="g" x1="22.34" x2="21.876" y1="120.93" y2="123.18" gradientTransform="translate(-14.849 -12.374)" gradientUnits="userSpaceOnUse"> <stop stop-color="#ffc2ab" offset="0"/> <stop stop-color="#d69f8a" offset=".27431"/> <stop stop-color="#d69f8a" offset="1"/> </linearGradient> <linearGradient id="h" x1="22.185" x2="21.832" y1="120.8" y2="116.6" gradientTransform="translate(-14.849 -12.374)" gradientUnits="userSpaceOnUse"> <stop stop-color="#ffc2ab" offset="0"/> <stop stop-color="#ffc2ab" offset=".17493"/> <stop stop-color="#ffc2ab" offset=".69432"/> <stop stop-color="#ffded1" offset="1"/> </linearGradient> <linearGradient id="i" x1="36.372" x2="36.814" y1="132.49" y2="123.47" gradientTransform="translate(-26.96 -21.562)" gradientUnits="userSpaceOnUse"> <stop stop-color="#d69f8a" offset="0"/> <stop stop-color="#ffded1" offset="1"/> </linearGradient> <linearGradient id="j" x1="216.02" x2="216.02" y1="111.71" y2="126.41" gradientTransform="translate(-14.849 -12.374)" gradientUnits="userSpaceOnUse"> <stop offset="0"/> <stop stop-color="#49494a" offset=".26714"/> <stop stop-color="#aaa9ad" offset=".51222"/> <stop stop-color="#4b4a4c" offset=".73259"/> <stop offset="1"/> </linearGradient> </defs> <g transform="matrix(2.1639 -2.2022 2.2022 2.1639 -222.2 264.7)"> <path d="m194.53 99.225h21.662c1.4967 0 3.1788 0.39691 3.1788 4.0192v6.742c0 3.4764-1.6241 4.0694-3.1788 4.0694h-21.662z" color="#000000" fill="url(#j)"/> <path d="m16.087 99.224-21.531 7.0312 21.531 7.75 2.9688 0.0625 0.0625-4.0625-0.375-6.75 0.0625-4.0312h-2.7188z" color="#000000" fill="url(#i)"/> <path d="m-5.443 106.25 21.53-3.0062h2.6644l0.06993-4.0191-2.7344-3e-5z" color="#000000" fill="#ffded1"/> <path d="m-5.443 106.25 21.53-3.0062h2.6644l0.37076 6.742h-3.0352z" color="#000000" fill="url(#h)"/> <path d="m19.053 114.06 0.06911-4.0694h-3.0352l-21.53-3.7357 21.53 7.7549z" color="#000000" fill="url(#g)"/> <path d="m-0.44299 104.63-5 1.625 4.9687 1.7812c0.1394-0.56814 0.21875-1.1701 0.21875-1.7812 0-0.55819-0.07059-1.1021-0.1875-1.625z" color="#000000" fill="url(#f)"/> <path d="m16.087 99.225c1.1717 1.9707 0.3322 2.8583 0 4.0192h176.57v-4.0192z" color="#000000" fill="#97cc9c"/> <path d="m16.087 103.24c0.47119 1.9234 1.4036 3.5297 0 6.742h176.57v-6.742z" color="#000000" fill="#63c16d"/> <path d="m16.087 109.99c0.60363 1.4495 0.75239 2.8162 0 4.0192h176.57v-4.0192z" color="#000000" fill="#4a8e51"/> <path d="m191.94 99.225h2.5889v14.83l-2.5889-0.0502z" color="#000000" fill="#fff"/> <path d="m194.53 99.274v4.0312h24.844c0-3.6223-1.6908-4.0312-3.1875-4.0312h-21.656z" color="#000000" fill="#464646"/> <path d="m194.53 103.31v6.75h24.844v-6.75h-24.844z" color="#000000" fill="#343434"/> <path d="m194.53 110.06v4h22.406c1.289-0.20804 2.4375-1.0783 2.4375-4h-24.844z" color="#000000" fill="#232323"/> </g> </svg>